<?xml version="1.0" encoding="utf-8"?>
<!-- Generator: Adobe Illustrator 13.0.0, SVG Export Plug-In . SVG Version: 6.00 Build 14948)  -->
<!DOCTYPE svg PUBLIC "-//W3C//DTD SVG 1.1//EN" "http://www.w3.org/Graphics/SVG/1.1/DTD/svg11.dtd">
<svg version="1.1" id="Layer_1" xmlns="http://www.w3.org/2000/svg" xmlns:xlink="http://www.w3.org/1999/xlink" x="0px" y="0px"
	 width="212.903px" height="212.903px" viewBox="0 0 212.903 212.903" enable-background="new 0 0 212.903 212.903"
	 xml:space="preserve">
<radialGradient id="SVGID_1_" cx="68.5376" cy="217.8604" r="265.9361" gradientUnits="userSpaceOnUse">
	<stop  offset="0" style="stop-color:#B0BE52"/>
	<stop  offset="1" style="stop-color:#CDDE60"/>
</radialGradient>
<circle fill="url(#SVGID_1_)" cx="106.451" cy="106.451" r="106.451"/>
<path fill="#F2F2F2" d="M160.824,168.858c-9.714-4.875-19.218-6.908-28.305-9.383c-9.114-2.476-17.808-5.336-26.555-11.634
	c-10.865-7.868-21.302-22.464-21.32-44.803c0-4.9,0.506-10.183,1.639-15.86c4.092-20.956,19.343-39.624,32.479-46.565
	c13.96-7.489,30.201-9.733,44.303-9.725c7.392-0.002,14.166,0.609,19.702,1.357c-2.721-2.798-5.59-5.452-8.602-7.938
	c-3.479-0.258-7.202-0.42-11.101-0.421c-14.816,0.008-32.156,2.295-47.607,10.556c-15.341,8.306-31.31,28.075-36.041,51.368
	c-1.217,6.1-1.775,11.846-1.775,17.229c-0.021,24.629,11.737,41.516,24.23,50.48c9.746,7.028,19.495,10.185,28.812,12.71
	c9.343,2.526,18.259,4.482,26.997,8.883c6.435,3.279,11.486,8.274,14.594,15.005c1.885-1.485,3.718-3.034,5.497-4.642
	C173.94,178.159,168.083,172.467,160.824,168.858z"/>
</svg>
